<mxfile host="app.diagrams.net" modified="2021-11-30T08:45:05.253Z" agent="5.0 (Macintosh; Intel Mac OS X 10_15_7) AppleWebKit/537.36 (KHTML, like Gecko) Chrome/95.0.4638.69 Safari/537.36" etag="pUqjJF9eW42YhU6d8FV8" version="15.8.6" type="github">
  <diagram id="4TiKpHXuy74sdlEQm-0l" name="Page-1">
    <mxGraphModel dx="1678" dy="934" grid="1" gridSize="10" guides="1" tooltips="1" connect="1" arrows="1" fold="1" page="1" pageScale="1" pageWidth="827" pageHeight="1169" math="0" shadow="0">
      <root>
        <mxCell id="0" />
        <mxCell id="1" parent="0" />
        <mxCell id="d0mBG0d8ulaPG67GjrwJ-28" value="" style="edgeStyle=orthogonalEdgeStyle;rounded=0;orthogonalLoop=1;jettySize=auto;html=1;exitX=0.992;exitY=0.893;exitDx=0;exitDy=0;exitPerimeter=0;" edge="1" parent="1" source="d0mBG0d8ulaPG67GjrwJ-6" target="d0mBG0d8ulaPG67GjrwJ-27">
          <mxGeometry relative="1" as="geometry">
            <Array as="points">
              <mxPoint x="203" y="540" />
            </Array>
          </mxGeometry>
        </mxCell>
        <mxCell id="d0mBG0d8ulaPG67GjrwJ-6" value="" style="rounded=1;whiteSpace=wrap;html=1;" vertex="1" parent="1">
          <mxGeometry x="84" y="280" width="120" height="290" as="geometry" />
        </mxCell>
        <mxCell id="d0mBG0d8ulaPG67GjrwJ-10" value="" style="edgeStyle=orthogonalEdgeStyle;rounded=0;orthogonalLoop=1;jettySize=auto;html=1;" edge="1" parent="1" source="d0mBG0d8ulaPG67GjrwJ-7" target="d0mBG0d8ulaPG67GjrwJ-9">
          <mxGeometry relative="1" as="geometry" />
        </mxCell>
        <mxCell id="d0mBG0d8ulaPG67GjrwJ-15" value="myPrize(assetId)" style="edgeLabel;html=1;align=center;verticalAlign=middle;resizable=0;points=[];" vertex="1" connectable="0" parent="d0mBG0d8ulaPG67GjrwJ-10">
          <mxGeometry x="0.5897" y="2" relative="1" as="geometry">
            <mxPoint as="offset" />
          </mxGeometry>
        </mxCell>
        <mxCell id="d0mBG0d8ulaPG67GjrwJ-12" value="" style="edgeStyle=orthogonalEdgeStyle;rounded=0;orthogonalLoop=1;jettySize=auto;html=1;" edge="1" parent="1" source="d0mBG0d8ulaPG67GjrwJ-7" target="d0mBG0d8ulaPG67GjrwJ-11">
          <mxGeometry relative="1" as="geometry" />
        </mxCell>
        <mxCell id="d0mBG0d8ulaPG67GjrwJ-16" value="location.href = &#39;rule&#39;" style="edgeLabel;html=1;align=center;verticalAlign=middle;resizable=0;points=[];" vertex="1" connectable="0" parent="d0mBG0d8ulaPG67GjrwJ-12">
          <mxGeometry x="0.7765" y="1" relative="1" as="geometry">
            <mxPoint as="offset" />
          </mxGeometry>
        </mxCell>
        <mxCell id="d0mBG0d8ulaPG67GjrwJ-14" value="" style="edgeStyle=orthogonalEdgeStyle;rounded=0;orthogonalLoop=1;jettySize=auto;html=1;" edge="1" parent="1" source="d0mBG0d8ulaPG67GjrwJ-7" target="d0mBG0d8ulaPG67GjrwJ-13">
          <mxGeometry relative="1" as="geometry" />
        </mxCell>
        <mxCell id="d0mBG0d8ulaPG67GjrwJ-19" value="invoke.share(actData.share)" style="edgeLabel;html=1;align=center;verticalAlign=middle;resizable=0;points=[];" vertex="1" connectable="0" parent="d0mBG0d8ulaPG67GjrwJ-14">
          <mxGeometry x="0.8704" y="2" relative="1" as="geometry">
            <mxPoint as="offset" />
          </mxGeometry>
        </mxCell>
        <mxCell id="d0mBG0d8ulaPG67GjrwJ-7" value="头部区域" style="rounded=1;whiteSpace=wrap;html=1;" vertex="1" parent="1">
          <mxGeometry x="99" y="300" width="90" height="50" as="geometry" />
        </mxCell>
        <mxCell id="d0mBG0d8ulaPG67GjrwJ-31" value="" style="edgeStyle=orthogonalEdgeStyle;rounded=0;orthogonalLoop=1;jettySize=auto;html=1;entryX=0.5;entryY=1;entryDx=0;entryDy=0;" edge="1" parent="1" source="d0mBG0d8ulaPG67GjrwJ-8" target="d0mBG0d8ulaPG67GjrwJ-30">
          <mxGeometry relative="1" as="geometry" />
        </mxCell>
        <mxCell id="d0mBG0d8ulaPG67GjrwJ-32" value="request(&#39;/mbox/api/drawV3/info&#39;)" style="edgeLabel;html=1;align=center;verticalAlign=middle;resizable=0;points=[];" vertex="1" connectable="0" parent="d0mBG0d8ulaPG67GjrwJ-31">
          <mxGeometry x="0.5222" y="-1" relative="1" as="geometry">
            <mxPoint x="14" y="-13" as="offset" />
          </mxGeometry>
        </mxCell>
        <mxCell id="d0mBG0d8ulaPG67GjrwJ-34" value="" style="edgeStyle=orthogonalEdgeStyle;rounded=0;orthogonalLoop=1;jettySize=auto;html=1;entryX=0.5;entryY=1;entryDx=0;entryDy=0;" edge="1" parent="1" source="d0mBG0d8ulaPG67GjrwJ-8" target="d0mBG0d8ulaPG67GjrwJ-33">
          <mxGeometry relative="1" as="geometry" />
        </mxCell>
        <mxCell id="d0mBG0d8ulaPG67GjrwJ-35" value="request(&#39;/mbox/api/drawV3/draw&#39;)" style="edgeLabel;html=1;align=center;verticalAlign=middle;resizable=0;points=[];" vertex="1" connectable="0" parent="d0mBG0d8ulaPG67GjrwJ-34">
          <mxGeometry x="0.8607" y="1" relative="1" as="geometry">
            <mxPoint as="offset" />
          </mxGeometry>
        </mxCell>
        <mxCell id="d0mBG0d8ulaPG67GjrwJ-8" value="大转盘区域" style="rounded=1;whiteSpace=wrap;html=1;" vertex="1" parent="1">
          <mxGeometry x="104" y="400" width="85" height="130" as="geometry" />
        </mxCell>
        <mxCell id="d0mBG0d8ulaPG67GjrwJ-43" value="" style="edgeStyle=orthogonalEdgeStyle;rounded=0;orthogonalLoop=1;jettySize=auto;html=1;" edge="1" parent="1" source="d0mBG0d8ulaPG67GjrwJ-9" target="d0mBG0d8ulaPG67GjrwJ-42">
          <mxGeometry relative="1" as="geometry" />
        </mxCell>
        <mxCell id="d0mBG0d8ulaPG67GjrwJ-9" value="我的奖品页" style="rounded=1;whiteSpace=wrap;html=1;" vertex="1" parent="1">
          <mxGeometry x="244" y="170" width="90" height="60" as="geometry" />
        </mxCell>
        <mxCell id="d0mBG0d8ulaPG67GjrwJ-40" value="" style="edgeStyle=orthogonalEdgeStyle;rounded=0;orthogonalLoop=1;jettySize=auto;html=1;" edge="1" parent="1" source="d0mBG0d8ulaPG67GjrwJ-11" target="d0mBG0d8ulaPG67GjrwJ-39">
          <mxGeometry relative="1" as="geometry" />
        </mxCell>
        <mxCell id="d0mBG0d8ulaPG67GjrwJ-41" value="goFeedBack(&#39;appName&#39;, ufoId)" style="edgeLabel;html=1;align=center;verticalAlign=middle;resizable=0;points=[];" vertex="1" connectable="0" parent="d0mBG0d8ulaPG67GjrwJ-40">
          <mxGeometry x="0.05" y="2" relative="1" as="geometry">
            <mxPoint as="offset" />
          </mxGeometry>
        </mxCell>
        <mxCell id="d0mBG0d8ulaPG67GjrwJ-11" value="规则页" style="whiteSpace=wrap;html=1;rounded=1;" vertex="1" parent="1">
          <mxGeometry x="384" y="170" width="100" height="60" as="geometry" />
        </mxCell>
        <mxCell id="d0mBG0d8ulaPG67GjrwJ-45" value="" style="edgeStyle=orthogonalEdgeStyle;rounded=0;orthogonalLoop=1;jettySize=auto;html=1;" edge="1" parent="1" source="d0mBG0d8ulaPG67GjrwJ-13" target="d0mBG0d8ulaPG67GjrwJ-44">
          <mxGeometry relative="1" as="geometry" />
        </mxCell>
        <mxCell id="d0mBG0d8ulaPG67GjrwJ-13" value="端外分享页" style="whiteSpace=wrap;html=1;rounded=1;" vertex="1" parent="1">
          <mxGeometry x="574" y="170" width="120" height="60" as="geometry" />
        </mxCell>
        <mxCell id="d0mBG0d8ulaPG67GjrwJ-20" value="大转盘主页" style="text;html=1;strokeColor=none;fillColor=none;align=center;verticalAlign=middle;whiteSpace=wrap;rounded=0;" vertex="1" parent="1">
          <mxGeometry x="109" y="360" width="70" height="30" as="geometry" />
        </mxCell>
        <mxCell id="d0mBG0d8ulaPG67GjrwJ-37" value="" style="edgeStyle=orthogonalEdgeStyle;rounded=0;orthogonalLoop=1;jettySize=auto;html=1;" edge="1" parent="1" source="d0mBG0d8ulaPG67GjrwJ-27" target="d0mBG0d8ulaPG67GjrwJ-36">
          <mxGeometry relative="1" as="geometry" />
        </mxCell>
        <mxCell id="d0mBG0d8ulaPG67GjrwJ-27" value="活动结束页" style="whiteSpace=wrap;html=1;rounded=1;" vertex="1" parent="1">
          <mxGeometry x="364" y="510" width="120" height="60" as="geometry" />
        </mxCell>
        <mxCell id="d0mBG0d8ulaPG67GjrwJ-30" value="&lt;span&gt;初始化drawInfo、winners、prizes...&lt;/span&gt;" style="ellipse;whiteSpace=wrap;html=1;rounded=1;" vertex="1" parent="1">
          <mxGeometry x="229" y="345" width="120" height="60" as="geometry" />
        </mxCell>
        <mxCell id="d0mBG0d8ulaPG67GjrwJ-33" value="抽奖操作" style="ellipse;whiteSpace=wrap;html=1;rounded=1;" vertex="1" parent="1">
          <mxGeometry x="509" y="340" width="120" height="60" as="geometry" />
        </mxCell>
        <mxCell id="d0mBG0d8ulaPG67GjrwJ-47" style="edgeStyle=orthogonalEdgeStyle;rounded=0;orthogonalLoop=1;jettySize=auto;html=1;exitX=0.5;exitY=1;exitDx=0;exitDy=0;entryX=0;entryY=0.5;entryDx=0;entryDy=0;" edge="1" parent="1" source="d0mBG0d8ulaPG67GjrwJ-36" target="d0mBG0d8ulaPG67GjrwJ-9">
          <mxGeometry relative="1" as="geometry">
            <Array as="points">
              <mxPoint x="714" y="640" />
              <mxPoint x="34" y="640" />
              <mxPoint x="34" y="200" />
            </Array>
          </mxGeometry>
        </mxCell>
        <mxCell id="d0mBG0d8ulaPG67GjrwJ-50" value="myPrize(assetId)" style="edgeLabel;html=1;align=center;verticalAlign=middle;resizable=0;points=[];" vertex="1" connectable="0" parent="d0mBG0d8ulaPG67GjrwJ-47">
          <mxGeometry x="-0.349" y="2" relative="1" as="geometry">
            <mxPoint y="-2" as="offset" />
          </mxGeometry>
        </mxCell>
        <mxCell id="d0mBG0d8ulaPG67GjrwJ-36" value="查看我的奖品" style="ellipse;whiteSpace=wrap;html=1;rounded=1;" vertex="1" parent="1">
          <mxGeometry x="654" y="510" width="120" height="60" as="geometry" />
        </mxCell>
        <mxCell id="d0mBG0d8ulaPG67GjrwJ-39" value="去反馈" style="ellipse;whiteSpace=wrap;html=1;rounded=1;" vertex="1" parent="1">
          <mxGeometry x="374" y="30" width="120" height="60" as="geometry" />
        </mxCell>
        <mxCell id="d0mBG0d8ulaPG67GjrwJ-42" value="资产中心内我的奖品页" style="ellipse;whiteSpace=wrap;html=1;rounded=1;" vertex="1" parent="1">
          <mxGeometry x="229" y="30" width="120" height="60" as="geometry" />
        </mxCell>
        <mxCell id="d0mBG0d8ulaPG67GjrwJ-48" style="edgeStyle=orthogonalEdgeStyle;rounded=0;orthogonalLoop=1;jettySize=auto;html=1;exitX=0.5;exitY=0;exitDx=0;exitDy=0;entryX=0.5;entryY=0;entryDx=0;entryDy=0;" edge="1" parent="1" source="d0mBG0d8ulaPG67GjrwJ-44" target="d0mBG0d8ulaPG67GjrwJ-6">
          <mxGeometry relative="1" as="geometry" />
        </mxCell>
        <mxCell id="d0mBG0d8ulaPG67GjrwJ-49" value="awake.link()" style="edgeLabel;html=1;align=center;verticalAlign=middle;resizable=0;points=[];" vertex="1" connectable="0" parent="d0mBG0d8ulaPG67GjrwJ-48">
          <mxGeometry x="-0.3179" y="1" relative="1" as="geometry">
            <mxPoint y="-1" as="offset" />
          </mxGeometry>
        </mxCell>
        <mxCell id="d0mBG0d8ulaPG67GjrwJ-44" value="调起端" style="ellipse;whiteSpace=wrap;html=1;rounded=1;" vertex="1" parent="1">
          <mxGeometry x="574" y="30" width="120" height="60" as="geometry" />
        </mxCell>
        <mxCell id="d0mBG0d8ulaPG67GjrwJ-73" value="" style="edgeStyle=orthogonalEdgeStyle;rounded=0;orthogonalLoop=1;jettySize=auto;html=1;exitX=0.992;exitY=0.896;exitDx=0;exitDy=0;exitPerimeter=0;" edge="1" parent="1" source="d0mBG0d8ulaPG67GjrwJ-51" target="d0mBG0d8ulaPG67GjrwJ-72">
          <mxGeometry relative="1" as="geometry" />
        </mxCell>
        <mxCell id="d0mBG0d8ulaPG67GjrwJ-88" value="" style="edgeStyle=orthogonalEdgeStyle;rounded=0;orthogonalLoop=1;jettySize=auto;html=1;" edge="1" parent="1" source="d0mBG0d8ulaPG67GjrwJ-51" target="d0mBG0d8ulaPG67GjrwJ-87">
          <mxGeometry relative="1" as="geometry" />
        </mxCell>
        <mxCell id="d0mBG0d8ulaPG67GjrwJ-51" value="" style="rounded=1;whiteSpace=wrap;html=1;" vertex="1" parent="1">
          <mxGeometry x="69.5" y="1030" width="139" height="280" as="geometry" />
        </mxCell>
        <mxCell id="d0mBG0d8ulaPG67GjrwJ-56" value="" style="edgeStyle=orthogonalEdgeStyle;rounded=0;orthogonalLoop=1;jettySize=auto;html=1;" edge="1" parent="1" source="d0mBG0d8ulaPG67GjrwJ-52" target="d0mBG0d8ulaPG67GjrwJ-55">
          <mxGeometry relative="1" as="geometry" />
        </mxCell>
        <mxCell id="d0mBG0d8ulaPG67GjrwJ-61" value="myPrize(assetId)" style="edgeLabel;html=1;align=center;verticalAlign=middle;resizable=0;points=[];" vertex="1" connectable="0" parent="d0mBG0d8ulaPG67GjrwJ-56">
          <mxGeometry x="0.6284" y="1" relative="1" as="geometry">
            <mxPoint y="1" as="offset" />
          </mxGeometry>
        </mxCell>
        <mxCell id="d0mBG0d8ulaPG67GjrwJ-58" value="" style="edgeStyle=orthogonalEdgeStyle;rounded=0;orthogonalLoop=1;jettySize=auto;html=1;" edge="1" parent="1" source="d0mBG0d8ulaPG67GjrwJ-52" target="d0mBG0d8ulaPG67GjrwJ-57">
          <mxGeometry relative="1" as="geometry" />
        </mxCell>
        <mxCell id="d0mBG0d8ulaPG67GjrwJ-62" value="location.href" style="edgeLabel;html=1;align=center;verticalAlign=middle;resizable=0;points=[];" vertex="1" connectable="0" parent="d0mBG0d8ulaPG67GjrwJ-58">
          <mxGeometry x="0.8402" relative="1" as="geometry">
            <mxPoint y="1" as="offset" />
          </mxGeometry>
        </mxCell>
        <mxCell id="d0mBG0d8ulaPG67GjrwJ-60" value="" style="edgeStyle=orthogonalEdgeStyle;rounded=0;orthogonalLoop=1;jettySize=auto;html=1;" edge="1" parent="1" source="d0mBG0d8ulaPG67GjrwJ-52" target="d0mBG0d8ulaPG67GjrwJ-59">
          <mxGeometry relative="1" as="geometry" />
        </mxCell>
        <mxCell id="d0mBG0d8ulaPG67GjrwJ-63" value="invoke.share(actData.share)" style="edgeLabel;html=1;align=center;verticalAlign=middle;resizable=0;points=[];" vertex="1" connectable="0" parent="d0mBG0d8ulaPG67GjrwJ-60">
          <mxGeometry x="0.8934" y="1" relative="1" as="geometry">
            <mxPoint as="offset" />
          </mxGeometry>
        </mxCell>
        <mxCell id="d0mBG0d8ulaPG67GjrwJ-52" value="头部组件" style="rounded=1;whiteSpace=wrap;html=1;" vertex="1" parent="1">
          <mxGeometry x="93.5" y="1050" width="101" height="50" as="geometry" />
        </mxCell>
        <mxCell id="d0mBG0d8ulaPG67GjrwJ-53" value="主页" style="text;html=1;strokeColor=none;fillColor=none;align=center;verticalAlign=middle;whiteSpace=wrap;rounded=0;" vertex="1" parent="1">
          <mxGeometry x="114" y="1110" width="60" height="30" as="geometry" />
        </mxCell>
        <mxCell id="d0mBG0d8ulaPG67GjrwJ-67" value="" style="edgeStyle=orthogonalEdgeStyle;rounded=0;orthogonalLoop=1;jettySize=auto;html=1;entryX=0.5;entryY=1;entryDx=0;entryDy=0;" edge="1" parent="1" source="d0mBG0d8ulaPG67GjrwJ-54" target="d0mBG0d8ulaPG67GjrwJ-66">
          <mxGeometry relative="1" as="geometry" />
        </mxCell>
        <mxCell id="d0mBG0d8ulaPG67GjrwJ-68" value="request(drawInfoUrl || &#39;/mbox/api/drawV3/info&#39;)" style="edgeLabel;html=1;align=center;verticalAlign=middle;resizable=0;points=[];" vertex="1" connectable="0" parent="d0mBG0d8ulaPG67GjrwJ-67">
          <mxGeometry x="0.6897" y="1" relative="1" as="geometry">
            <mxPoint x="1" y="-8" as="offset" />
          </mxGeometry>
        </mxCell>
        <mxCell id="d0mBG0d8ulaPG67GjrwJ-70" value="" style="edgeStyle=orthogonalEdgeStyle;rounded=0;orthogonalLoop=1;jettySize=auto;html=1;entryX=0.5;entryY=1;entryDx=0;entryDy=0;" edge="1" parent="1" source="d0mBG0d8ulaPG67GjrwJ-54" target="d0mBG0d8ulaPG67GjrwJ-69">
          <mxGeometry relative="1" as="geometry" />
        </mxCell>
        <mxCell id="d0mBG0d8ulaPG67GjrwJ-71" value="request(drawUrl || &#39;/mbox/api/drawV3/draw&#39;)" style="edgeLabel;html=1;align=center;verticalAlign=middle;resizable=0;points=[];" vertex="1" connectable="0" parent="d0mBG0d8ulaPG67GjrwJ-70">
          <mxGeometry x="0.9077" y="2" relative="1" as="geometry">
            <mxPoint as="offset" />
          </mxGeometry>
        </mxCell>
        <mxCell id="d0mBG0d8ulaPG67GjrwJ-54" value="抽奖组件" style="rounded=1;whiteSpace=wrap;html=1;" vertex="1" parent="1">
          <mxGeometry x="94" y="1140" width="106" height="120" as="geometry" />
        </mxCell>
        <mxCell id="d0mBG0d8ulaPG67GjrwJ-79" value="" style="edgeStyle=orthogonalEdgeStyle;rounded=0;orthogonalLoop=1;jettySize=auto;html=1;" edge="1" parent="1" source="d0mBG0d8ulaPG67GjrwJ-55" target="d0mBG0d8ulaPG67GjrwJ-78">
          <mxGeometry relative="1" as="geometry" />
        </mxCell>
        <mxCell id="d0mBG0d8ulaPG67GjrwJ-55" value="我的奖品页" style="whiteSpace=wrap;html=1;rounded=1;" vertex="1" parent="1">
          <mxGeometry x="254" y="930" width="120" height="60" as="geometry" />
        </mxCell>
        <mxCell id="d0mBG0d8ulaPG67GjrwJ-81" value="" style="edgeStyle=orthogonalEdgeStyle;rounded=0;orthogonalLoop=1;jettySize=auto;html=1;" edge="1" parent="1" source="d0mBG0d8ulaPG67GjrwJ-57" target="d0mBG0d8ulaPG67GjrwJ-80">
          <mxGeometry relative="1" as="geometry" />
        </mxCell>
        <mxCell id="d0mBG0d8ulaPG67GjrwJ-82" value="goFeedBack(&#39;appName&#39;, ufoId)" style="edgeLabel;html=1;align=center;verticalAlign=middle;resizable=0;points=[];" vertex="1" connectable="0" parent="d0mBG0d8ulaPG67GjrwJ-81">
          <mxGeometry x="0.1" y="1" relative="1" as="geometry">
            <mxPoint as="offset" />
          </mxGeometry>
        </mxCell>
        <mxCell id="d0mBG0d8ulaPG67GjrwJ-57" value="规则页" style="whiteSpace=wrap;html=1;rounded=1;" vertex="1" parent="1">
          <mxGeometry x="450" y="930" width="120" height="60" as="geometry" />
        </mxCell>
        <mxCell id="d0mBG0d8ulaPG67GjrwJ-65" style="edgeStyle=orthogonalEdgeStyle;rounded=0;orthogonalLoop=1;jettySize=auto;html=1;exitX=1;exitY=1;exitDx=0;exitDy=0;entryX=0;entryY=0.5;entryDx=0;entryDy=0;entryPerimeter=0;" edge="1" parent="1" source="d0mBG0d8ulaPG67GjrwJ-59" target="d0mBG0d8ulaPG67GjrwJ-64">
          <mxGeometry relative="1" as="geometry" />
        </mxCell>
        <mxCell id="d0mBG0d8ulaPG67GjrwJ-84" value="" style="edgeStyle=orthogonalEdgeStyle;rounded=0;orthogonalLoop=1;jettySize=auto;html=1;" edge="1" parent="1" source="d0mBG0d8ulaPG67GjrwJ-59" target="d0mBG0d8ulaPG67GjrwJ-83">
          <mxGeometry relative="1" as="geometry" />
        </mxCell>
        <mxCell id="d0mBG0d8ulaPG67GjrwJ-59" value="端外页/下载页" style="whiteSpace=wrap;html=1;rounded=1;" vertex="1" parent="1">
          <mxGeometry x="650" y="930" width="120" height="60" as="geometry" />
        </mxCell>
        <mxCell id="d0mBG0d8ulaPG67GjrwJ-64" value="url为matrixInvokePage非share" style="shape=note;whiteSpace=wrap;html=1;backgroundOutline=1;darkOpacity=0.05;" vertex="1" parent="1">
          <mxGeometry x="830" y="960" width="110" height="100" as="geometry" />
        </mxCell>
        <mxCell id="d0mBG0d8ulaPG67GjrwJ-66" value="初始化drawInfo、winners、prizes..." style="ellipse;whiteSpace=wrap;html=1;rounded=1;" vertex="1" parent="1">
          <mxGeometry x="334" y="1090" width="120" height="60" as="geometry" />
        </mxCell>
        <mxCell id="d0mBG0d8ulaPG67GjrwJ-69" value="抽奖操作" style="ellipse;whiteSpace=wrap;html=1;rounded=1;" vertex="1" parent="1">
          <mxGeometry x="610" y="1090" width="120" height="60" as="geometry" />
        </mxCell>
        <mxCell id="d0mBG0d8ulaPG67GjrwJ-75" value="" style="edgeStyle=orthogonalEdgeStyle;rounded=0;orthogonalLoop=1;jettySize=auto;html=1;" edge="1" parent="1" source="d0mBG0d8ulaPG67GjrwJ-72" target="d0mBG0d8ulaPG67GjrwJ-74">
          <mxGeometry relative="1" as="geometry" />
        </mxCell>
        <mxCell id="d0mBG0d8ulaPG67GjrwJ-90" value="" style="edgeStyle=orthogonalEdgeStyle;rounded=0;orthogonalLoop=1;jettySize=auto;html=1;" edge="1" parent="1" source="d0mBG0d8ulaPG67GjrwJ-72" target="d0mBG0d8ulaPG67GjrwJ-89">
          <mxGeometry relative="1" as="geometry" />
        </mxCell>
        <mxCell id="d0mBG0d8ulaPG67GjrwJ-72" value="活动结束页" style="whiteSpace=wrap;html=1;rounded=1;" vertex="1" parent="1">
          <mxGeometry x="364" y="1250" width="120" height="60" as="geometry" />
        </mxCell>
        <mxCell id="d0mBG0d8ulaPG67GjrwJ-76" style="edgeStyle=orthogonalEdgeStyle;rounded=0;orthogonalLoop=1;jettySize=auto;html=1;exitX=0.5;exitY=1;exitDx=0;exitDy=0;entryX=0;entryY=0.5;entryDx=0;entryDy=0;" edge="1" parent="1" source="d0mBG0d8ulaPG67GjrwJ-74" target="d0mBG0d8ulaPG67GjrwJ-55">
          <mxGeometry relative="1" as="geometry">
            <Array as="points">
              <mxPoint x="624" y="1360" />
              <mxPoint x="30" y="1360" />
              <mxPoint x="30" y="960" />
            </Array>
          </mxGeometry>
        </mxCell>
        <mxCell id="d0mBG0d8ulaPG67GjrwJ-77" value="myPrize(assetId)" style="edgeLabel;html=1;align=center;verticalAlign=middle;resizable=0;points=[];" vertex="1" connectable="0" parent="d0mBG0d8ulaPG67GjrwJ-76">
          <mxGeometry x="-0.4793" relative="1" as="geometry">
            <mxPoint as="offset" />
          </mxGeometry>
        </mxCell>
        <mxCell id="d0mBG0d8ulaPG67GjrwJ-74" value="查看我的奖品" style="ellipse;whiteSpace=wrap;html=1;rounded=1;" vertex="1" parent="1">
          <mxGeometry x="564" y="1250" width="120" height="60" as="geometry" />
        </mxCell>
        <mxCell id="d0mBG0d8ulaPG67GjrwJ-78" value="&lt;span&gt;资产中心内我的奖品页&lt;/span&gt;" style="ellipse;whiteSpace=wrap;html=1;rounded=1;" vertex="1" parent="1">
          <mxGeometry x="254" y="790" width="120" height="60" as="geometry" />
        </mxCell>
        <mxCell id="d0mBG0d8ulaPG67GjrwJ-80" value="去反馈" style="ellipse;whiteSpace=wrap;html=1;rounded=1;" vertex="1" parent="1">
          <mxGeometry x="450" y="790" width="120" height="60" as="geometry" />
        </mxCell>
        <mxCell id="d0mBG0d8ulaPG67GjrwJ-85" style="edgeStyle=orthogonalEdgeStyle;rounded=0;orthogonalLoop=1;jettySize=auto;html=1;exitX=0.5;exitY=0;exitDx=0;exitDy=0;" edge="1" parent="1" source="d0mBG0d8ulaPG67GjrwJ-83" target="d0mBG0d8ulaPG67GjrwJ-51">
          <mxGeometry relative="1" as="geometry" />
        </mxCell>
        <mxCell id="d0mBG0d8ulaPG67GjrwJ-86" value="link/avake" style="edgeLabel;html=1;align=center;verticalAlign=middle;resizable=0;points=[];" vertex="1" connectable="0" parent="d0mBG0d8ulaPG67GjrwJ-85">
          <mxGeometry x="-0.2418" y="-3" relative="1" as="geometry">
            <mxPoint as="offset" />
          </mxGeometry>
        </mxCell>
        <mxCell id="d0mBG0d8ulaPG67GjrwJ-83" value="调起端" style="ellipse;whiteSpace=wrap;html=1;rounded=1;" vertex="1" parent="1">
          <mxGeometry x="650" y="790" width="120" height="60" as="geometry" />
        </mxCell>
        <mxCell id="d0mBG0d8ulaPG67GjrwJ-87" value="1、带大转盘的home页需要判断是否在端内打开&lt;br&gt;2、活动结束后重定向到结束页" style="shape=note;whiteSpace=wrap;html=1;backgroundOutline=1;darkOpacity=0.05;textAlign=left;align=left;" vertex="1" parent="1">
          <mxGeometry x="99" y="1380" width="80" height="150" as="geometry" />
        </mxCell>
        <mxCell id="d0mBG0d8ulaPG67GjrwJ-89" value="目前缺少活动结束页" style="shape=note;whiteSpace=wrap;html=1;backgroundOutline=1;darkOpacity=0.05;" vertex="1" parent="1">
          <mxGeometry x="384" y="1380" width="80" height="120" as="geometry" />
        </mxCell>
      </root>
    </mxGraphModel>
  </diagram>
</mxfile>
